<svg width="20" height="20" viewBox="0 0 20 20" fill="none" xmlns="http://www.w3.org/2000/svg">
<path d="M9.25 0.25V4H10.75V0.25H9.25ZM3.625 2.57031L2.57031 3.625L5.21875 6.29688L6.29688 5.21875L3.625 2.57031ZM16.375 2.57031L13.7031 5.21875L14.7812 6.29688L17.4297 3.625L16.375 2.57031ZM10 4.75C7.1084 4.75 4.75 7.1084 4.75 10C4.75 12.8916 7.1084 15.25 10 15.25C12.8916 15.25 15.25 12.8916 15.25 10C15.25 7.1084 12.8916 4.75 10 4.75ZM10 6.25C12.0801 6.25 13.75 7.91992 13.75 10C13.75 12.0801 12.0801 13.75 10 13.75C7.91992 13.75 6.25 12.0801 6.25 10C6.25 7.91992 7.91992 6.25 10 6.25ZM0.25 9.25V10.75H4V9.25H0.25ZM16 9.25V10.75H19.75V9.25H16ZM5.21875 13.7031L2.57031 16.375L3.625 17.4297L6.29688 14.7812L5.21875 13.7031ZM14.7812 13.7031L13.7031 14.7812L16.375 17.4297L17.4297 16.375L14.7812 13.7031ZM9.25 16V19.75H10.75V16H9.25Z" fill="#FF9800"/>
</svg>
