<svg width="14" height="14" viewBox="0 0 14 14" fill="#8036e0" xmlns="http://www.w3.org/2000/svg">
<path d="M9.83329 0.666672C9.00629 0.666672 8.33329 1.33967 8.33329 2.16667V2.33334H0.833293C0.767037 2.3324 0.701256 2.34464 0.639772 2.36935C0.578288 2.39406 0.522327 2.43074 0.475142 2.47726C0.427957 2.52378 0.390489 2.57922 0.364915 2.64035C0.339342 2.70147 0.326172 2.76708 0.326172 2.83334C0.326172 2.8996 0.339342 2.9652 0.364915 3.02633C0.390489 3.08746 0.427957 3.1429 0.475142 3.18942C0.522327 3.23594 0.578288 3.27262 0.639772 3.29733C0.701256 3.32203 0.767037 3.33428 0.833293 3.33334H8.33329V3.50001C8.33329 4.32701 9.00629 5.00001 9.83329 5.00001C10.6603 5.00001 11.3333 4.32701 11.3333 3.50001V3.33334H13.1666C13.2329 3.33428 13.2987 3.32203 13.3601 3.29733C13.4216 3.27262 13.4776 3.23594 13.5248 3.18942C13.572 3.1429 13.6094 3.08746 13.635 3.02633C13.6606 2.9652 13.6737 2.8996 13.6737 2.83334C13.6737 2.76708 13.6606 2.70147 13.635 2.64035C13.6094 2.57922 13.572 2.52378 13.5248 2.47726C13.4776 2.43074 13.4216 2.39406 13.3601 2.36935C13.2987 2.34464 13.2329 2.3324 13.1666 2.33334H11.3333V2.16667C11.3333 1.33967 10.6603 0.666672 9.83329 0.666672ZM4.16663 4.83334C3.33963 4.83334 2.66663 5.50634 2.66663 6.33334V6.50001H0.833293C0.767037 6.49907 0.701256 6.51131 0.639772 6.53602C0.578288 6.56072 0.522327 6.5974 0.475142 6.64393C0.427957 6.69045 0.390489 6.74588 0.364915 6.80701C0.339342 6.86814 0.326172 6.93374 0.326172 7.00001C0.326172 7.06627 0.339342 7.13187 0.364915 7.193C0.390489 7.25413 0.427957 7.30956 0.475142 7.35608C0.522327 7.40261 0.578288 7.43929 0.639772 7.46399C0.701256 7.4887 0.767037 7.50094 0.833293 7.50001H2.66663V7.66667C2.66663 8.49367 3.33963 9.16667 4.16663 9.16667C4.99363 9.16667 5.66663 8.49367 5.66663 7.66667V7.50001H13.1666C13.2329 7.50094 13.2987 7.4887 13.3601 7.46399C13.4216 7.43929 13.4776 7.40261 13.5248 7.35608C13.572 7.30956 13.6094 7.25413 13.635 7.193C13.6606 7.13187 13.6737 7.06627 13.6737 7.00001C13.6737 6.93374 13.6606 6.86814 13.635 6.80701C13.6094 6.74588 13.572 6.69045 13.5248 6.64393C13.4776 6.5974 13.4216 6.56072 13.3601 6.53602C13.2987 6.51131 13.2329 6.49907 13.1666 6.50001H5.66663V6.33334C5.66663 5.50634 4.99363 4.83334 4.16663 4.83334ZM9.16663 9.00001C8.33963 9.00001 7.66663 9.67301 7.66663 10.5V10.6667H0.833293C0.767037 10.6657 0.701256 10.678 0.639772 10.7027C0.578288 10.7274 0.522327 10.7641 0.475142 10.8106C0.427957 10.8571 0.390489 10.9125 0.364915 10.9737C0.339342 11.0348 0.326172 11.1004 0.326172 11.1667C0.326172 11.2329 0.339342 11.2985 0.364915 11.3597C0.390489 11.4208 0.427957 11.4762 0.475142 11.5228C0.522327 11.5693 0.578288 11.606 0.639772 11.6307C0.701256 11.6554 0.767037 11.6676 0.833293 11.6667H7.66663V11.8333C7.66663 12.6603 8.33963 13.3333 9.16663 13.3333C9.99363 13.3333 10.6666 12.6603 10.6666 11.8333V11.6667H13.1666C13.2329 11.6676 13.2987 11.6554 13.3601 11.6307C13.4216 11.606 13.4776 11.5693 13.5248 11.5228C13.572 11.4762 13.6094 11.4208 13.635 11.3597C13.6606 11.2985 13.6737 11.2329 13.6737 11.1667C13.6737 11.1004 13.6606 11.0348 13.635 10.9737C13.6094 10.9125 13.572 10.8571 13.5248 10.8106C13.4776 10.7641 13.4216 10.7274 13.3601 10.7027C13.2987 10.678 13.2329 10.6657 13.1666 10.6667H10.6666V10.5C10.6666 9.67301 9.99363 9.00001 9.16663 9.00001Z" fill="#8036e0"/>
</svg>
