<svg width="35" height="24" viewBox="0 0 35 24" fill="none" xmlns="http://www.w3.org/2000/svg">
<rect width="35" height="24" rx="4" fill="#302D34"/>
<path fill-rule="evenodd" clip-rule="evenodd" d="M16.5301 15.7581V12.7371H18.0893C18.7282 12.7371 19.2675 12.523 19.7071 12.1008L19.8126 11.9938C20.6156 11.1196 20.5629 9.75778 19.7071 8.94902C19.2792 8.52085 18.6931 8.28893 18.0893 8.30082H15.5864V15.7581H16.5301ZM16.5302 11.8216V9.21661H18.1131C18.4531 9.21661 18.7756 9.34745 19.0159 9.58535C19.526 10.0849 19.5377 10.9176 19.0453 11.435C18.8049 11.6907 18.4649 11.8335 18.1131 11.8216H16.5302ZM24.2147 11.0542C23.8102 10.6795 23.2592 10.4892 22.5617 10.4892C21.6649 10.4892 20.9908 10.8223 20.5453 11.4823L21.3777 12.0116C21.6825 11.5597 22.0986 11.3337 22.6262 11.3337C22.9603 11.3337 23.2827 11.4586 23.5347 11.6845C23.7809 11.8986 23.9216 12.2078 23.9216 12.5349V12.755C23.5582 12.5528 23.101 12.4457 22.5383 12.4457C21.8818 12.4457 21.3542 12.6003 20.9615 12.9155C20.5688 13.2307 20.3695 13.647 20.3695 14.1762C20.3578 14.6579 20.5629 15.1158 20.9263 15.425C21.2956 15.7581 21.7645 15.9246 22.3155 15.9246C22.9661 15.9246 23.482 15.6332 23.8747 15.0504H23.9157V15.7581H24.8184V12.6122C24.8184 11.9521 24.6191 11.4288 24.2147 11.0542ZM21.6533 14.8187C21.4599 14.6759 21.3426 14.444 21.3426 14.1942C21.3426 13.9146 21.4716 13.6827 21.7237 13.4983C21.9816 13.314 22.3041 13.2188 22.6851 13.2188C23.2127 13.2128 23.6231 13.3318 23.9162 13.5697C23.9162 13.9741 23.758 14.325 23.4472 14.6224C23.1658 14.9079 22.7848 15.0684 22.3861 15.0684C22.1223 15.0744 21.8644 14.9852 21.6533 14.8187ZM26.8465 18L30 10.6557H28.9743L27.5147 14.3189H27.4972L26.0025 10.6557H24.9767L27.0458 15.431L25.8735 18H26.8465Z" fill="#F2F1F3"/>
<path d="M13.2721 12.0831C13.2721 11.7916 13.2487 11.5002 13.2018 11.2147H9.2218V12.8622H11.5019C11.4082 13.3915 11.1034 13.8673 10.6579 14.1647V15.2352H12.0178C12.8149 14.4918 13.2721 13.3915 13.2721 12.0831Z" fill="#F2F1F3"/>
<path d="M9.22198 16.2699C10.3591 16.2699 11.3204 15.8892 12.0179 15.235L10.6581 14.1645C10.2771 14.4262 9.79056 14.5749 9.22198 14.5749C8.12001 14.5749 7.18802 13.8195 6.85392 12.8085H5.453V13.9147C6.16811 15.3599 7.62764 16.2699 9.22198 16.2699Z" fill="#F2F1F3"/>
<path d="M6.85401 12.8088C6.67814 12.2795 6.67814 11.7026 6.85401 11.1673V10.067H5.45288C4.84904 11.2744 4.84904 12.7017 5.45288 13.9091L6.85401 12.8088Z" fill="#F2F1F3"/>
<path d="M9.22198 9.40117C9.82573 9.38927 10.406 9.62122 10.8398 10.0435L12.0473 8.81832C11.2794 8.09273 10.2712 7.69425 9.22198 7.70615C7.62764 7.70615 6.16811 8.62205 5.453 10.0673L6.85392 11.1735C7.18802 10.1565 8.12001 9.40117 9.22198 9.40117Z" fill="#F2F1F3"/>
</svg>
