<svg width="36" height="24" viewBox="0 0 36 24" fill="none" xmlns="http://www.w3.org/2000/svg">
<rect x="0.539185" width="35.004" height="24" rx="2.00023" fill="#302D34"/>
<path fill-rule="evenodd" clip-rule="evenodd" d="M18.0412 17.2624C19.5434 16.0034 20.4985 14.1132 20.4985 12C20.4985 9.88686 19.5434 7.99673 18.0412 6.73774C19.2335 5.73846 20.7705 5.1368 22.4479 5.1368C26.2389 5.1368 29.312 8.20959 29.312 12.0001C29.312 15.7906 26.2389 18.8634 22.4479 18.8634C20.7704 18.8634 19.2335 18.2617 18.0412 17.2624ZM18.0412 17.2624C16.8489 18.2617 15.3119 18.8633 13.6345 18.8633C9.84354 18.8633 6.77039 15.7905 6.77039 12C6.77039 8.20955 9.84354 5.13676 13.6345 5.13676C15.312 5.13676 16.8489 5.73844 18.0412 6.73774C16.539 7.99673 15.5839 9.88687 15.5839 12.0001C15.5839 14.1133 16.539 16.0034 18.0412 17.2624Z" fill="#F2F1F3"/>
</svg>
