<svg width="36" height="24" viewBox="0 0 36 24" fill="none" xmlns="http://www.w3.org/2000/svg">
<rect x="0.0162354" width="35" height="24" rx="4" fill="#302D34"/>
<path d="M15.252 17.7689L15.4665 16.4064L14.9887 16.3953H12.707L14.2927 6.34114C14.2975 6.31079 14.3136 6.28249 14.3369 6.26239C14.3603 6.2423 14.3903 6.23122 14.4215 6.23122H18.2687C19.5459 6.23122 20.4273 6.497 20.8875 7.02159C21.1033 7.26769 21.2407 7.52485 21.3072 7.80786C21.3768 8.10482 21.3781 8.4596 21.31 8.89231L21.305 8.9239V9.20115L21.5209 9.32339C21.7026 9.41977 21.8468 9.5301 21.9576 9.65643C22.1422 9.86684 22.2616 10.1343 22.312 10.4513C22.3641 10.7774 22.3469 11.1654 22.2616 11.6047C22.1631 12.11 22.004 12.5501 21.7891 12.9102C21.5913 13.242 21.3395 13.5172 21.0406 13.7305C20.7551 13.9331 20.4159 14.087 20.0324 14.1854C19.6607 14.2821 19.2371 14.331 18.7724 14.331H18.473C18.2589 14.331 18.0509 14.4081 17.8877 14.5464C17.7241 14.6874 17.6157 14.8801 17.5825 15.091L17.5599 15.2137L17.1809 17.615L17.1637 17.7032C17.1592 17.7312 17.1514 17.7451 17.14 17.7546C17.1297 17.7631 17.1149 17.7689 17.1005 17.7689H15.252Z" fill="#253B80"/>
<path d="M21.7242 8.95639C21.7127 9.0298 21.6996 9.10486 21.6849 9.18197C21.1774 11.7869 19.4417 12.6868 17.2248 12.6868H16.096C15.8249 12.6868 15.5965 12.8836 15.5542 13.151L14.9763 16.8162L14.8126 17.8551C14.7851 18.0307 14.9206 18.189 15.0977 18.189H17.0997C17.3368 18.189 17.5381 18.0167 17.5754 17.783L17.5951 17.6812L17.9721 15.2892L17.9963 15.158C18.0332 14.9234 18.2349 14.7511 18.472 14.7511H18.7714C20.711 14.7511 22.2295 13.9636 22.6733 11.6847C22.8587 10.7328 22.7627 9.93789 22.2721 9.37885C22.1237 9.21027 21.9395 9.07041 21.7242 8.95639Z" fill="#817A8A"/>
<path d="M21.1923 8.74413C21.1149 8.72157 21.0348 8.70106 20.9528 8.68261C20.8704 8.66457 20.7858 8.64857 20.6989 8.63463C20.3946 8.5854 20.0611 8.56203 19.7039 8.56203H16.6884C16.6142 8.56203 16.5437 8.57884 16.4805 8.60919C16.3414 8.67604 16.2381 8.80771 16.2131 8.9689L15.5715 13.0319L15.5531 13.1504C15.5954 12.883 15.8238 12.6861 16.0949 12.6861H17.2236C19.4406 12.6861 21.1764 11.7858 21.6837 9.18136C21.6988 9.10425 21.7116 9.02919 21.723 8.95578C21.5947 8.88769 21.4556 8.82945 21.3059 8.77981C21.2691 8.76751 21.2309 8.75562 21.1923 8.74413Z" fill="#BFBAC4"/>
<path d="M16.2149 8.96917C16.2399 8.80798 16.3434 8.67632 16.4823 8.60987C16.546 8.57952 16.6161 8.5627 16.6902 8.5627H19.7058C20.0631 8.5627 20.3965 8.58608 20.7008 8.6353C20.7878 8.64925 20.8723 8.66524 20.9547 8.68328C21.0368 8.70175 21.1167 8.72226 21.1943 8.74481C21.2328 8.7563 21.2709 8.76819 21.3082 8.78009C21.4579 8.82971 21.597 8.88837 21.7253 8.95604C21.8763 7.99341 21.7242 7.33798 21.2037 6.74448C20.6299 6.09111 19.5942 5.81139 18.269 5.81139H14.4217C14.151 5.81139 13.9202 6.00825 13.8782 6.27609L12.2758 16.4336C12.2442 16.6345 12.3992 16.8159 12.6018 16.8159H14.9771L15.5735 13.0322L16.2149 8.96917Z" fill="#F2F1F3"/>
</svg>
