<svg width="10" height="12" viewBox="0 0 10 12" fill="#8036e0" xmlns="http://www.w3.org/2000/svg">
<path d="M5.34591 0.80533C5.15291 0.62033 4.84791 0.62033 4.65491 0.80533L0.821577 4.472C0.67391 4.61333 0.627244 4.83 0.703244 5.01966C0.779244 5.20933 0.962577 5.33333 1.16691 5.33333H8.83358C9.03758 5.33333 9.22158 5.209 9.29791 5.01966C9.37391 4.83033 9.32691 4.61333 9.17958 4.472L5.34591 0.80533ZM8.83358 6.66666H1.16691C0.962577 6.66666 0.77891 6.791 0.70291 6.98033C0.62691 7.16966 0.67391 7.38666 0.821244 7.528L4.65458 11.1947C4.75124 11.287 4.87558 11.3333 5.00024 11.3333C5.12491 11.3333 5.24924 11.287 5.34591 11.1947L9.17924 7.528C9.32658 7.38666 9.37358 7.17 9.29758 6.98033C9.22158 6.791 9.03758 6.66666 8.83358 6.66666Z" fill="#8036e0"/>
</svg>
