<?xml version="1.0" encoding="UTF-8"?>
<!DOCTYPE svg PUBLIC "-//W3C//DTD SVG 1.1//EN" "http://www.w3.org/Graphics/SVG/1.1/DTD/svg11.dtd">
<!-- Creator: CorelDRAW 2020 (64-Bit) -->
<svg xmlns="http://www.w3.org/2000/svg" xml:space="preserve" width="48.7681mm" height="48.768mm" version="1.1" style="shape-rendering:geometricPrecision; text-rendering:geometricPrecision; image-rendering:optimizeQuality; fill-rule:evenodd; clip-rule:evenodd"
viewBox="0 0 4876.82 4876.81"
 xmlns:xlink="http://www.w3.org/1999/xlink"
 xmlns:xodm="http://www.corel.com/coreldraw/odm/2003">
 <defs>
  <style type="text/css">
   <![CDATA[
    .fil2 {fill:none}
    .fil1 {fill:white}
    .fil0 {fill:url(#id1)}
   ]]>
  </style>
   <clipPath id="id0">
    <path d="M102.35 2897.38c-30.41,32.82 -45.46,108.43 -50.67,157.92 -3.7,35.16 -1.66,75.01 8.03,118l27.24 83.2c1.39,3.27 2.84,6.54 4.33,9.83 44.28,97.82 182.25,205.68 264.87,218.79 30.14,26.95 109.32,42.8 186.34,92.19 30.57,19.61 57.21,44.17 74.66,81.87 25.23,54.53 12.77,87.57 24.7,136.16 -12.46,52.41 -6.05,220.38 12.82,290.21 22.55,83.54 92.1,188.86 167.82,230.3 99.82,82.97 255.98,88.64 414.51,65.6 223.06,-32.41 245.18,5.25 353.21,185.97 42.88,121.52 181.87,261.83 319.64,295.93 340.75,84.3 480.37,-255.8 675.02,-237.13 59.26,5.68 146.27,54.67 194.58,87.44 140.45,95.28 278.22,126.55 397.98,100.66l73.33 -24.01c111.22,-49.62 201.3,-154.71 254.97,-308.5 18.95,-54.28 59.19,-146.52 101.94,-187.24 69.29,-66.01 155.44,-58.18 236.79,-55.4 253.83,8.7 492.22,-75.07 539.71,-344.86 9.85,-56.02 16.12,-174.44 -3.79,-240.31 -20.23,-214.57 -18.38,-259.77 180.39,-363.73 80.85,-42.29 136.98,-78.17 192.31,-133.74 40.74,-40.93 104.42,-123.96 100.95,-180.41 35.25,-79.57 27.16,-189.64 -7.69,-272.62 -27.05,-64.41 -117.01,-197.65 -157.95,-233.28 -26.48,-63.82 -91.27,-103.07 -51.64,-228 17.55,-55.31 21.49,-46.54 46.7,-91.93 15.57,-28.04 46.91,-74.78 51.92,-98.99 58.91,-58.34 106.26,-228.42 84.25,-332.9 -0.74,-3.51 -1.52,-7 -2.31,-10.46l-27.45 -83.84c-16.1,-36.89 -35.97,-68.4 -58.17,-93.85 -35,-40.14 -95.52,-94.49 -139.17,-102.73 -86.88,-75.48 -248.15,-76.1 -321.98,-188.83 -40.74,-62.2 -23.22,-101.19 -36.91,-157.48 11.01,-51.12 6.09,-134.53 0.33,-198.97 -8.09,-90.7 -26.17,-147.75 -73.56,-216.79 -69.28,-100.89 -204.91,-186.49 -325.98,-178.71 -69.14,-18.95 -238.58,24.87 -324.71,18.06 -280.71,-22.18 -223.13,-547.24 -693.48,-502.03 -346.59,33.32 -344.51,405.66 -714.73,163.43 -125.12,-81.88 -256.09,-145.08 -418.94,-99.63l-38.13 12.47c-243.67,91.48 -261.55,337.6 -333.47,447.19 -74.78,113.95 -142.1,115.21 -280.16,110.48 -232.26,-7.96 -425.36,41.79 -521.43,277.06 -37.37,91.5 -29.36,192.16 -15.32,308.19 15.55,128.5 30.07,206.33 -58.72,286.19 -43.19,38.85 -88.14,56.49 -144.37,88.67 -33.11,18.94 -109.41,62.8 -133.58,93.91 -101.44,63.44 -158.94,212.64 -157.34,328.92 1.13,82 19.04,142.36 64.81,219.09 34.17,57.27 81.91,131.55 122.11,167.24 20.92,50.27 55.92,71.84 62.84,140.72 13.63,135.56 -121.81,238.58 -147.45,350.68z"/>
   </clipPath>
  <linearGradient id="id1" gradientUnits="userSpaceOnUse" x1="4190.46" y1="686.29" x2="685.1" y2="4191.8">
   <stop offset="0" style="stop-opacity:1; stop-color:#D418A0"/>
   <stop offset="0.568627" style="stop-opacity:1; stop-color:#E97250"/>
   <stop offset="1" style="stop-opacity:1; stop-color:#FFCC00"/>
  </linearGradient>
 </defs>
 <g id="Layer_x0020_1">
  <metadata id="CorelCorpID_0Corel-Layer"/>
  <path class="fil0" d="M102.35 2897.38c-30.41,32.82 -45.46,108.43 -50.67,157.92 -3.7,35.16 -1.66,75.01 8.03,118l27.24 83.2c1.39,3.27 2.84,6.54 4.33,9.83 44.28,97.82 182.25,205.68 264.87,218.79 30.14,26.95 109.32,42.8 186.34,92.19 30.57,19.61 57.21,44.17 74.66,81.87 25.23,54.53 12.77,87.57 24.7,136.16 -12.46,52.41 -6.05,220.38 12.82,290.21 22.55,83.54 92.1,188.86 167.82,230.3 99.82,82.97 255.98,88.64 414.51,65.6 223.06,-32.41 245.18,5.25 353.21,185.97 42.88,121.52 181.87,261.83 319.64,295.93 340.75,84.3 480.37,-255.8 675.02,-237.13 59.26,5.68 146.27,54.67 194.58,87.44 140.45,95.28 278.22,126.55 397.98,100.66l73.33 -24.01c111.22,-49.62 201.3,-154.71 254.97,-308.5 18.95,-54.28 59.19,-146.52 101.94,-187.24 69.29,-66.01 155.44,-58.18 236.79,-55.4 253.83,8.7 492.22,-75.07 539.71,-344.86 9.85,-56.02 16.12,-174.44 -3.79,-240.31 -20.23,-214.57 -18.38,-259.77 180.39,-363.73 80.85,-42.29 136.98,-78.17 192.31,-133.74 40.74,-40.93 104.42,-123.96 100.95,-180.41 35.25,-79.57 27.16,-189.64 -7.69,-272.62 -27.05,-64.41 -117.01,-197.65 -157.95,-233.28 -26.48,-63.82 -91.27,-103.07 -51.64,-228 17.55,-55.31 21.49,-46.54 46.7,-91.93 15.57,-28.04 46.91,-74.78 51.92,-98.99 58.91,-58.34 106.26,-228.42 84.25,-332.9 -0.74,-3.51 -1.52,-7 -2.31,-10.46l-27.45 -83.84c-16.1,-36.89 -35.97,-68.4 -58.17,-93.85 -35,-40.14 -95.52,-94.49 -139.17,-102.73 -86.88,-75.48 -248.15,-76.1 -321.98,-188.83 -40.74,-62.2 -23.22,-101.19 -36.91,-157.48 11.01,-51.12 6.09,-134.53 0.33,-198.97 -8.09,-90.7 -26.17,-147.75 -73.56,-216.79 -69.28,-100.89 -204.91,-186.49 -325.98,-178.71 -69.14,-18.95 -238.58,24.87 -324.71,18.06 -280.71,-22.18 -223.13,-547.24 -693.48,-502.03 -346.59,33.32 -344.51,405.66 -714.73,163.43 -125.12,-81.88 -256.09,-145.08 -418.94,-99.63l-38.13 12.47c-243.67,91.48 -261.55,337.6 -333.47,447.19 -74.78,113.95 -142.1,115.21 -280.16,110.48 -232.26,-7.96 -425.36,41.79 -521.43,277.06 -37.37,91.5 -29.36,192.16 -15.32,308.19 15.55,128.5 30.07,206.33 -58.72,286.19 -43.19,38.85 -88.14,56.49 -144.37,88.67 -33.11,18.94 -109.41,62.8 -133.58,93.91 -101.44,63.44 -158.94,212.64 -157.34,328.92 1.13,82 19.04,142.36 64.81,219.09 34.17,57.27 81.91,131.55 122.11,167.24 20.92,50.27 55.92,71.84 62.84,140.72 13.63,135.56 -121.81,238.58 -147.45,350.68z"/>
  <g style="clip-path:url(#id0)">
   <g id="_2000283153248">
    <path id="1" class="fil1" d="M1946 2854.99c-18.54,-27.75 -268.7,-271.65 -314.25,-317.2 -140.33,-140.28 -272.38,-327.08 -498.43,-229.04 -94.27,40.86 -177.87,140.24 -177.87,256.56 0,173.68 76.61,218.54 189.7,331.64 94.41,94.45 540.71,550.09 605.58,605.12 111.85,94.92 289.08,98.65 393.8,-2.53l1581.32 -1581.55c128.19,-128.18 195.5,-161.77 195.5,-343.23 0,-133.3 -138.9,-272.29 -272.24,-272.29 -163.15,0 -190.9,43.2 -294.01,146.31 -115.99,115.99 -1379.1,1386.1 -1409.1,1406.21z"/>
   </g>
  </g>
  <path class="fil2" d="M102.35 2897.38c-30.41,32.82 -45.46,108.43 -50.67,157.92 -3.7,35.16 -1.66,75.01 8.03,118l27.24 83.2c1.39,3.27 2.84,6.54 4.33,9.83 44.28,97.82 182.25,205.68 264.87,218.79 30.14,26.95 109.32,42.8 186.34,92.19 30.57,19.61 57.21,44.17 74.66,81.87 25.23,54.53 12.77,87.57 24.7,136.16 -12.46,52.41 -6.05,220.38 12.82,290.21 22.55,83.54 92.1,188.86 167.82,230.3 99.82,82.97 255.98,88.64 414.51,65.6 223.06,-32.41 245.18,5.25 353.21,185.97 42.88,121.52 181.87,261.83 319.64,295.93 340.75,84.3 480.37,-255.8 675.02,-237.13 59.26,5.68 146.27,54.67 194.58,87.44 140.45,95.28 278.22,126.55 397.98,100.66l73.33 -24.01c111.22,-49.62 201.3,-154.71 254.97,-308.5 18.95,-54.28 59.19,-146.52 101.94,-187.24 69.29,-66.01 155.44,-58.18 236.79,-55.4 253.83,8.7 492.22,-75.07 539.71,-344.86 9.85,-56.02 16.12,-174.44 -3.79,-240.31 -20.23,-214.57 -18.38,-259.77 180.39,-363.73 80.85,-42.29 136.98,-78.17 192.31,-133.74 40.74,-40.93 104.42,-123.96 100.95,-180.41 35.25,-79.57 27.16,-189.64 -7.69,-272.62 -27.05,-64.41 -117.01,-197.65 -157.95,-233.28 -26.48,-63.82 -91.27,-103.07 -51.64,-228 17.55,-55.31 21.49,-46.54 46.7,-91.93 15.57,-28.04 46.91,-74.78 51.92,-98.99 58.91,-58.34 106.26,-228.42 84.25,-332.9 -0.74,-3.51 -1.52,-7 -2.31,-10.46l-27.45 -83.84c-16.1,-36.89 -35.97,-68.4 -58.17,-93.85 -35,-40.14 -95.52,-94.49 -139.17,-102.73 -86.88,-75.48 -248.15,-76.1 -321.98,-188.83 -40.74,-62.2 -23.22,-101.19 -36.91,-157.48 11.01,-51.12 6.09,-134.53 0.33,-198.97 -8.09,-90.7 -26.17,-147.75 -73.56,-216.79 -69.28,-100.89 -204.91,-186.49 -325.98,-178.71 -69.14,-18.95 -238.58,24.87 -324.71,18.06 -280.71,-22.18 -223.13,-547.24 -693.48,-502.03 -346.59,33.32 -344.51,405.66 -714.73,163.43 -125.12,-81.88 -256.09,-145.08 -418.94,-99.63l-38.13 12.47c-243.67,91.48 -261.55,337.6 -333.47,447.19 -74.78,113.95 -142.1,115.21 -280.16,110.48 -232.26,-7.96 -425.36,41.79 -521.43,277.06 -37.37,91.5 -29.36,192.16 -15.32,308.19 15.55,128.5 30.07,206.33 -58.72,286.19 -43.19,38.85 -88.14,56.49 -144.37,88.67 -33.11,18.94 -109.41,62.8 -133.58,93.91 -101.44,63.44 -158.94,212.64 -157.34,328.92 1.13,82 19.04,142.36 64.81,219.09 34.17,57.27 81.91,131.55 122.11,167.24 20.92,50.27 55.92,71.84 62.84,140.72 13.63,135.56 -121.81,238.58 -147.45,350.68z"/>
 </g>
</svg>
