<svg width="36" height="24" viewBox="0 0 36 24" fill="none" xmlns="http://www.w3.org/2000/svg">
<rect width="35.004" height="24" rx="2.00023" fill="#302D34"/>
<path d="M14.9758 16.0829H12.9966L14.2345 8.42925H16.2136L14.9758 16.0829Z" fill="#F2F1F3"/>
<path d="M22.1499 8.61637C21.7595 8.46151 21.1403 8.29053 20.3747 8.29053C18.4201 8.29053 17.0438 9.33267 17.0353 10.8226C17.0191 11.9219 18.0208 12.5325 18.7699 12.899C19.5357 13.2735 19.796 13.518 19.796 13.8518C19.7882 14.3646 19.1772 14.6009 18.6074 14.6009C17.8172 14.6009 17.3938 14.4791 16.7503 14.1938L16.4897 14.0715L16.2128 15.7896C16.677 16.0011 17.5322 16.1887 18.4201 16.1969C20.4969 16.1969 21.8489 15.1709 21.8649 13.5831C21.8728 12.7119 21.3439 12.0443 20.2035 11.4988C19.5113 11.1486 19.0874 10.9124 19.0874 10.5541C19.0955 10.2284 19.4459 9.89475 20.2274 9.89475C20.8708 9.87841 21.3435 10.0331 21.7017 10.1878L21.8807 10.2691L22.1499 8.61637Z" fill="#F2F1F3"/>
<path d="M24.7814 13.3715C24.9444 12.9318 25.5716 11.23 25.5716 11.23C25.5634 11.2464 25.7343 10.7822 25.832 10.4973L25.9703 11.1568C25.9703 11.1568 26.3451 12.9888 26.4265 13.3715C26.1172 13.3715 25.1723 13.3715 24.7814 13.3715ZM27.2245 8.42925H25.6936C25.2215 8.42925 24.8628 8.56756 24.6591 9.06428L21.7192 16.0827H23.796C23.796 16.0827 24.1379 15.1381 24.2114 14.9347C24.4392 14.9347 26.4594 14.9347 26.7525 14.9347C26.8093 15.2034 26.9886 16.0827 26.9886 16.0827H28.8212L27.2245 8.42925Z" fill="#F2F1F3"/>
<path d="M11.3433 8.42925L9.40498 13.6483L9.19318 12.5898C8.83482 11.3684 7.71096 10.0415 6.45679 9.38168L8.2322 16.0747H10.3252L13.4361 8.42925H11.3433Z" fill="#F2F1F3"/>
<path d="M7.60511 8.42925H4.42076L4.38818 8.58391C6.87218 9.21912 8.51728 10.7503 9.19318 12.5906L8.50094 9.07268C8.38697 8.58381 8.03674 8.44538 7.60511 8.42925Z" fill="#F2F1F3"/>
</svg>
